<svg width="20" height="20" viewBox="0 0 20 20" fill="none" xmlns="http://www.w3.org/2000/svg">
<path fill-rule="evenodd" clip-rule="evenodd" d="M3.7335 1.3335H3.66683C3.3615 1.3335 3.09883 1.3335 2.86683 1.38816C2.50768 1.47398 2.1793 1.65756 1.91807 1.91855C1.65684 2.17954 1.47297 2.50776 1.38683 2.86683C1.3335 3.09883 1.3335 3.36016 1.3335 3.66683V7.00016C1.3335 7.3055 1.3335 7.56816 1.38816 7.80016C1.47398 8.15931 1.65756 8.4877 1.91855 8.74892C2.17954 9.01015 2.50776 9.19402 2.86683 9.28016C3.09883 9.3335 3.36016 9.3335 3.66683 9.3335H7.00016C7.3055 9.3335 7.56816 9.3335 7.80016 9.27883C8.15931 9.19301 8.4877 9.00943 8.74892 8.74844C9.01015 8.48745 9.19402 8.15924 9.28016 7.80016C9.3335 7.56816 9.3335 7.30683 9.3335 7.00016V3.66683C9.3335 3.3615 9.3335 3.09883 9.27883 2.86683C9.19301 2.50768 9.00943 2.1793 8.74844 1.91807C8.48745 1.65684 8.15924 1.47297 7.80016 1.38683C7.56816 1.3335 7.30683 1.3335 7.00016 1.3335H6.9335H3.7335ZM3.1775 2.6855C3.23483 2.67216 3.32416 2.66683 3.7335 2.66683H6.9335C7.34416 2.66683 7.43216 2.67083 7.4895 2.6855C7.60927 2.71414 7.71877 2.7754 7.80585 2.86248C7.89293 2.94956 7.95419 3.05906 7.98283 3.17883C7.99616 3.23483 8.00016 3.32283 8.00016 3.7335V6.9335C8.00016 7.34416 7.99616 7.43216 7.9815 7.4895C7.95285 7.60927 7.8916 7.71877 7.80452 7.80585C7.71743 7.89293 7.60794 7.95419 7.48816 7.98283C7.4335 7.99483 7.3455 8.00016 6.9335 8.00016H3.7335C3.32283 8.00016 3.23483 7.99616 3.1775 7.9815C3.05772 7.95285 2.94822 7.8916 2.86114 7.80452C2.77406 7.71743 2.7128 7.60794 2.68416 7.48816C2.67216 7.4335 2.66683 7.3455 2.66683 6.9335V3.7335C2.66683 3.32283 2.67083 3.23483 2.6855 3.1775C2.71414 3.05772 2.7754 2.94822 2.86248 2.86114C2.94956 2.77406 3.05906 2.7128 3.17883 2.68416M13.0668 1.3335H13.0002C12.6948 1.3335 12.4322 1.3335 12.2002 1.38816C11.841 1.47398 11.5126 1.65756 11.2514 1.91855C10.9902 2.17954 10.8063 2.50776 10.7202 2.86683C10.6668 3.09883 10.6668 3.36016 10.6668 3.66683V7.00016C10.6668 7.3055 10.6668 7.56816 10.7215 7.80016C10.8073 8.15931 10.9909 8.4877 11.2519 8.74892C11.5129 9.01015 11.8411 9.19402 12.2002 9.28016C12.4322 9.3335 12.6935 9.3335 13.0002 9.3335H16.3335C16.6388 9.3335 16.9015 9.3335 17.1335 9.27883C17.4926 9.19301 17.821 9.00943 18.0823 8.74844C18.3435 8.48745 18.5274 8.15924 18.6135 7.80016C18.6668 7.56816 18.6668 7.30683 18.6668 7.00016V3.66683C18.6668 3.3615 18.6668 3.09883 18.6122 2.86683C18.5263 2.50768 18.3428 2.1793 18.0818 1.91807C17.8208 1.65684 17.4926 1.47297 17.1335 1.38683C16.9015 1.3335 16.6402 1.3335 16.3335 1.3335H16.2668H13.0668ZM12.5108 2.6855C12.5682 2.67216 12.6575 2.66683 13.0668 2.66683H16.2668C16.6775 2.66683 16.7655 2.67083 16.8228 2.6855C16.9426 2.71414 17.0521 2.7754 17.1392 2.86248C17.2263 2.94956 17.2875 3.05906 17.3162 3.17883C17.3295 3.23483 17.3335 3.32283 17.3335 3.7335V6.9335C17.3335 7.34416 17.3282 7.43216 17.3148 7.4895C17.2862 7.60927 17.2249 7.71877 17.1378 7.80585C17.0508 7.89293 16.9413 7.95419 16.8215 7.98283C16.7655 7.99616 16.6775 8.00016 16.2668 8.00016H13.0668C12.6562 8.00016 12.5682 7.99616 12.5108 7.9815C12.3911 7.95285 12.2816 7.8916 12.1945 7.80452C12.1074 7.71743 12.0461 7.60794 12.0175 7.48816C12.0055 7.4335 12.0002 7.3455 12.0002 6.9335V3.7335C12.0002 3.32283 12.0042 3.23483 12.0188 3.1775C12.0475 3.05772 12.1087 2.94822 12.1958 2.86114C12.2829 2.77406 12.3924 2.7128 12.5122 2.68416M3.66683 10.6668H7.00016C7.3055 10.6668 7.56816 10.6668 7.80016 10.7215C8.15931 10.8073 8.4877 10.9909 8.74892 11.2519C9.01015 11.5129 9.19402 11.8411 9.28016 12.2002C9.3335 12.4322 9.3335 12.6935 9.3335 13.0002V16.3335C9.3335 16.6388 9.3335 16.9015 9.27883 17.1335C9.19301 17.4926 9.00943 17.821 8.74844 18.0823C8.48745 18.3435 8.15924 18.5274 7.80016 18.6135C7.56816 18.6668 7.30683 18.6668 7.00016 18.6668H3.66683C3.3615 18.6668 3.09883 18.6668 2.86683 18.6122C2.50768 18.5263 2.1793 18.3428 1.91807 18.0818C1.65684 17.8208 1.47297 17.4926 1.38683 17.1335C1.3335 16.9015 1.3335 16.6402 1.3335 16.3335V13.0002C1.3335 12.6948 1.3335 12.4322 1.38816 12.2002C1.47398 11.841 1.65756 11.5126 1.91855 11.2514C2.17954 10.9902 2.50776 10.8063 2.86683 10.7202C3.09883 10.6668 3.36016 10.6668 3.66683 10.6668ZM3.7335 12.0002C3.32283 12.0002 3.23483 12.0042 3.1775 12.0188C3.05772 12.0475 2.94822 12.1087 2.86114 12.1958C2.77406 12.2829 2.7128 12.3924 2.68416 12.5122C2.67216 12.5668 2.66683 12.6548 2.66683 13.0668V16.2668C2.66683 16.6775 2.67083 16.7655 2.6855 16.8228C2.71414 16.9426 2.7754 17.0521 2.86248 17.1392C2.94956 17.2263 3.05906 17.2875 3.17883 17.3162C3.23483 17.3295 3.32283 17.3335 3.7335 17.3335H6.9335C7.34416 17.3335 7.43216 17.3282 7.4895 17.3148C7.60927 17.2862 7.71877 17.2249 7.80585 17.1378C7.89293 17.0508 7.95419 16.9413 7.98283 16.8215C7.99616 16.7655 8.00016 16.6775 8.00016 16.2668V13.0668C8.00016 12.6562 7.99616 12.5682 7.9815 12.5108C7.95285 12.3911 7.8916 12.2816 7.80452 12.1945C7.71743 12.1074 7.60794 12.0461 7.48816 12.0175C7.4335 12.0055 7.3455 12.0002 6.9335 12.0002H3.7335ZM13.0668 10.6668H13.0002C12.6948 10.6668 12.4322 10.6668 12.2002 10.7215C11.841 10.8073 11.5126 10.9909 11.2514 11.2519C10.9902 11.5129 10.8063 11.8411 10.7202 12.2002C10.6668 12.4322 10.6668 12.6935 10.6668 13.0002V16.3335C10.6668 16.6388 10.6668 16.9015 10.7215 17.1335C10.8073 17.4926 10.9909 17.821 11.2519 18.0823C11.5129 18.3435 11.8411 18.5274 12.2002 18.6135C12.4322 18.6682 12.6948 18.6682 13.0002 18.6682H16.3335C16.6388 18.6682 16.9015 18.6682 17.1335 18.6135C17.4924 18.5275 17.8205 18.3438 18.0815 18.0828C18.3425 17.8218 18.5261 17.4937 18.6122 17.1348C18.6668 16.9028 18.6668 16.6402 18.6668 16.3348V13.0002C18.6668 12.6948 18.6668 12.4322 18.6122 12.2002C18.5263 11.841 18.3428 11.5126 18.0818 11.2514C17.8208 10.9902 17.4926 10.8063 17.1335 10.7202C16.9015 10.6668 16.6402 10.6668 16.3335 10.6668H16.2668H13.0668ZM12.5108 12.0188C12.5682 12.0055 12.6575 12.0002 13.0668 12.0002H16.2668C16.6775 12.0002 16.7655 12.0042 16.8228 12.0188C16.9426 12.0475 17.0521 12.1087 17.1392 12.1958C17.2263 12.2829 17.2875 12.3924 17.3162 12.5122C17.3295 12.5682 17.3335 12.6562 17.3335 13.0668V16.2668C17.3335 16.6775 17.3282 16.7655 17.3148 16.8228C17.2862 16.9426 17.2249 17.0521 17.1378 17.1392C17.0508 17.2263 16.9413 17.2875 16.8215 17.3162C16.7655 17.3295 16.6775 17.3335 16.2668 17.3335H13.0668C12.6562 17.3335 12.5682 17.3282 12.5108 17.3148C12.3911 17.2862 12.2816 17.2249 12.1945 17.1378C12.1074 17.0508 12.0461 16.9413 12.0175 16.8215C12.0055 16.7668 12.0002 16.6788 12.0002 16.2668V13.0668C12.0002 12.6562 12.0042 12.5682 12.0188 12.5108C12.0475 12.3911 12.1087 12.2816 12.1958 12.1945C12.2829 12.1074 12.3924 12.0461 12.5122 12.0175" fill="white"/>
</svg>
