<svg width="16" height="18" viewBox="0 0 16 18" fill="none" xmlns="http://www.w3.org/2000/svg">
<path d="M5.1375 4.18125C5.07831 4.04227 4.98009 3.92344 4.85474 3.83913C4.72939 3.75483 4.58229 3.70867 4.43125 3.70625H1.93125C1.86559 3.70252 1.8 3.71479 1.74012 3.74201C1.68024 3.76923 1.62787 3.81057 1.5875 3.8625C1.55409 3.92161 1.53654 3.98835 1.53654 4.05625C1.53654 4.12415 1.55409 4.19089 1.5875 4.25L3.29375 7.20625L0.606252 11.95C0.57097 12.0085 0.552322 12.0755 0.552322 12.1437C0.552322 12.212 0.57097 12.279 0.606252 12.3375C0.639786 12.3931 0.687639 12.4387 0.74481 12.4695C0.801982 12.5002 0.866372 12.5151 0.931252 12.5125H3.43125C3.58108 12.5078 3.7262 12.4591 3.84848 12.3724C3.97075 12.2857 4.06476 12.1648 4.11875 12.025L6.84375 7.20625L5.1375 4.18125ZM15.3938 0.8C15.426 0.740521 15.4429 0.673921 15.4429 0.60625C15.4429 0.538579 15.426 0.47198 15.3938 0.4125C15.3568 0.359594 15.307 0.316931 15.2491 0.28851C15.1912 0.260089 15.127 0.246838 15.0625 0.25H12.5125C12.3649 0.254168 12.2219 0.302159 12.1017 0.387861C11.9815 0.473563 11.8895 0.5931 11.8375 0.73125C11.8375 0.73125 6.4 10.375 6.2125 10.6875L9.8 17.2687C9.85847 17.4075 9.95549 17.5266 10.0795 17.6119C10.2036 17.6971 10.3495 17.7451 10.5 17.75H13C13.0656 17.7555 13.1316 17.7434 13.1909 17.7148C13.2503 17.6862 13.3009 17.6423 13.3375 17.5875C13.3715 17.5286 13.3894 17.4618 13.3894 17.3937C13.3894 17.3257 13.3715 17.2589 13.3375 17.2L9.78125 10.7L15.3938 0.8Z" fill="#699BF7"/>
</svg>
