<svg width="20" height="20" viewBox="0 0 20 20" fill="none" xmlns="http://www.w3.org/2000/svg">
<path d="M15 11.6667H8.75L10.4167 10H15M5 11.6667V9.58333L10.7333 3.86667C10.8917 3.70833 11.1583 3.70833 11.325 3.86667L12.7917 5.34167C12.9583 5.50833 12.9583 5.76667 12.7917 5.93333L7.05833 11.6667M16.6667 1.66667H3.33333C2.8913 1.66667 2.46738 1.84226 2.15482 2.15482C1.84226 2.46738 1.66666 2.89131 1.66666 3.33333V18.3333L5 15H16.6667C17.1087 15 17.5326 14.8244 17.8452 14.5118C18.1577 14.1993 18.3333 13.7754 18.3333 13.3333V3.33333C18.3333 2.89131 18.1577 2.46738 17.8452 2.15482C17.5326 1.84226 17.1087 1.66667 16.6667 1.66667Z" fill="#699BF7"/>
</svg>
