<svg width="18" height="16" viewBox="0 0 18 16" fill="none" xmlns="http://www.w3.org/2000/svg">
<path d="M10.6667 0.916668C13.8092 0.916668 15.3808 0.916668 16.3567 1.95417C17.3325 2.99167 17.3333 4.66083 17.3333 8C17.3333 11.3392 17.3333 13.0083 16.3567 14.0458C15.38 15.0833 13.8092 15.0833 10.6667 15.0833H7.33333C4.19083 15.0833 2.61917 15.0833 1.64333 14.0458C0.667501 13.0083 0.666668 11.3392 0.666668 8C0.666668 4.66083 0.666668 2.99167 1.64333 1.95417C2.62 0.916668 4.19083 0.916668 7.33333 0.916668H10.6667Z" stroke="#699BF7" stroke-width="1.25" stroke-linecap="round" stroke-linejoin="round"/>
<path d="M3.16667 10.9167C4.50751 9.13584 7.62834 9.03834 9 10.9167M11.5 5.91667H14.8333M11.5 9.25H13.1667M7.54084 6.54167C7.54084 6.92844 7.38719 7.29938 7.1137 7.57287C6.84021 7.84636 6.46928 8 6.0825 8C5.69573 8 5.3248 7.84636 5.05131 7.57287C4.77782 7.29938 4.62417 6.92844 4.62417 6.54167C4.62417 6.1549 4.77782 5.78396 5.05131 5.51047C5.3248 5.23698 5.69573 5.08334 6.0825 5.08334C6.46928 5.08334 6.84021 5.23698 7.1137 5.51047C7.38719 5.78396 7.54084 6.1549 7.54084 6.54167Z" stroke="#699BF7" stroke-width="1.25" stroke-linecap="round" stroke-linejoin="round"/>
</svg>
