<svg width="20" height="26" viewBox="0 0 20 26" fill="none" xmlns="http://www.w3.org/2000/svg">
<path fill-rule="evenodd" clip-rule="evenodd" d="M10 3C9.33696 3 8.70107 3.26339 8.23223 3.73223C7.76339 4.20107 7.5 4.83696 7.5 5.5H12.5C12.5 4.83696 12.2366 4.20107 11.7678 3.73223C11.2989 3.26339 10.663 3 10 3ZM6.6925 1.75C7.57375 0.9725 8.7325 0.5 10 0.5C11.2675 0.5 12.425 0.9725 13.3075 1.75H17.5C18.163 1.75 18.7989 2.01339 19.2678 2.48223C19.7366 2.95107 20 3.58696 20 4.25V23C20 23.663 19.7366 24.2989 19.2678 24.7678C18.7989 25.2366 18.163 25.5 17.5 25.5H2.5C1.83696 25.5 1.20107 25.2366 0.732233 24.7678C0.263392 24.2989 0 23.663 0 23V4.25C0 3.58696 0.263392 2.95107 0.732233 2.48223C1.20107 2.01339 1.83696 1.75 2.5 1.75H6.6925ZM5.1575 4.25H2.5V23H17.5V4.25H14.8425C14.9458 4.65083 14.9983 5.0675 15 5.5V6.75C15 7.08152 14.8683 7.39946 14.6339 7.63388C14.3995 7.8683 14.0815 8 13.75 8H6.25C5.91848 8 5.60054 7.8683 5.36612 7.63388C5.1317 7.39946 5 7.08152 5 6.75V5.5C5.00167 5.0675 5.05417 4.65083 5.1575 4.25ZM5 11.75C5 11.4185 5.1317 11.1005 5.36612 10.8661C5.60054 10.6317 5.91848 10.5 6.25 10.5H13.75C14.0815 10.5 14.3995 10.6317 14.6339 10.8661C14.8683 11.1005 15 11.4185 15 11.75C15 12.0815 14.8683 12.3995 14.6339 12.6339C14.3995 12.8683 14.0815 13 13.75 13H6.25C5.91848 13 5.60054 12.8683 5.36612 12.6339C5.1317 12.3995 5 12.0815 5 11.75ZM5 16.75C5 16.4185 5.1317 16.1005 5.36612 15.8661C5.60054 15.6317 5.91848 15.5 6.25 15.5H10C10.3315 15.5 10.6495 15.6317 10.8839 15.8661C11.1183 16.1005 11.25 16.4185 11.25 16.75C11.25 17.0815 11.1183 17.3995 10.8839 17.6339C10.6495 17.8683 10.3315 18 10 18H6.25C5.91848 18 5.60054 17.8683 5.36612 17.6339C5.1317 17.3995 5 17.0815 5 16.75Z" fill="#F8F8F8"/>
</svg>
