<svg width="24" height="24" viewBox="0 0 24 24" fill="none" xmlns="http://www.w3.org/2000/svg">
<path fill-rule="evenodd" clip-rule="evenodd" d="M11.2596 3.69132C11.4788 3.78221 11.6661 3.93607 11.7979 4.13343C11.9297 4.33079 12 4.5628 12 4.80012V19.2001C11.9999 19.4374 11.9295 19.6694 11.7976 19.8667C11.6658 20.064 11.4784 20.2177 11.2591 20.3085C11.0399 20.3993 10.7987 20.4231 10.5659 20.3768C10.3332 20.3305 10.1194 20.2163 9.95155 20.0485L5.50315 15.6001H2.39995C2.08169 15.6001 1.77647 15.4737 1.55142 15.2486C1.32638 15.0236 1.19995 14.7184 1.19995 14.4001V9.60012C1.19995 9.28186 1.32638 8.97663 1.55142 8.75159C1.77647 8.52655 2.08169 8.40012 2.39995 8.40012H5.50315L9.95155 3.95172C10.1194 3.7838 10.3332 3.66943 10.566 3.62308C10.7989 3.57672 11.0402 3.60047 11.2596 3.69132ZM17.5884 3.51492C17.8134 3.28995 18.1186 3.16357 18.4368 3.16357C18.7549 3.16357 19.0601 3.28995 19.2852 3.51492C20.4009 4.6281 21.2858 5.95074 21.889 7.40689C22.4922 8.86303 22.8018 10.424 22.8 12.0001C22.8018 13.5762 22.4922 15.1372 21.889 16.5933C21.2858 18.0495 20.4009 19.3721 19.2852 20.4853C19.0588 20.7039 18.7557 20.8249 18.4411 20.8221C18.1264 20.8194 17.8255 20.6932 17.603 20.4707C17.3805 20.2482 17.2543 19.9472 17.2515 19.6326C17.2488 19.318 17.3698 19.0148 17.5884 18.7885C18.4813 17.8982 19.1894 16.8401 19.672 15.6751C20.1545 14.51 20.4019 13.2611 20.4 12.0001C20.402 10.7391 20.1546 9.49017 19.6721 8.32514C19.1895 7.16012 18.4814 6.10201 17.5884 5.21172C17.3634 4.98668 17.237 4.68151 17.237 4.36332C17.237 4.04512 17.3634 3.73995 17.5884 3.51492ZM14.1936 6.90852C14.305 6.79695 14.4373 6.70844 14.583 6.64805C14.7287 6.58766 14.8849 6.55657 15.0426 6.55657C15.2002 6.55657 15.3564 6.58766 15.5021 6.64805C15.6478 6.70844 15.7801 6.79695 15.8916 6.90852C16.561 7.57652 17.0919 8.3702 17.4537 9.24397C17.8155 10.1177 18.0012 11.0544 18 12.0001C18.0011 12.9458 17.8155 13.8825 17.4536 14.7562C17.0918 15.63 16.561 16.4237 15.8916 17.0917C15.6664 17.3169 15.361 17.4434 15.0426 17.4434C14.7241 17.4434 14.4187 17.3169 14.1936 17.0917C13.9684 16.8666 13.8419 16.5612 13.8419 16.2427C13.8419 15.9243 13.9684 15.6189 14.1936 15.3937C14.6402 14.9487 14.9943 14.4198 15.2357 13.8374C15.4771 13.255 15.6009 12.6306 15.6 12.0001C15.6009 11.3697 15.4772 10.7452 15.2358 10.1628C14.9944 9.58038 14.6402 9.05146 14.1936 8.60652C14.082 8.49507 13.9935 8.36272 13.9331 8.21705C13.8727 8.07137 13.8416 7.91522 13.8416 7.75752C13.8416 7.59982 13.8727 7.44367 13.9331 7.29799C13.9935 7.15231 14.082 7.01997 14.1936 6.90852Z" fill="#666666"/>
</svg>
